<?xml version="1.0" standalone="no"?>
<!DOCTYPE svg PUBLIC "-//W3C//DTD SVG 1.1//EN" "http://www.w3.org/Graphics/SVG/1.1/DTD/svg11.dtd">
<svg version="1.1" xmlns="http://www.w3.org/2000/svg" width="192" height="100">
  <metadata>Created by Arni Magnusson (2012,2014)</metadata>
  <g transform="translate(0,100) scale(0.026,-0.026)" fill="#104090">
    <path d="M888 3796 c-27 -56 -24 -61 45 -75 84 -17 194 -71 253 -124 l48 -44 -80 -12 c-238 -39 -525 -148 -734 -281 l-75 -48 -148 -11 c-81 -6 -152 -13 -157 -16 -6 -4 -10 -19 -10 -35 l0 -29 108 6 107 6 -80 -75 c-44 -42 -94 -96 -112 -120 l-32 -45 28 -27 27 -26 39 56 c46 67 136 150 227 211 l67 45 233 -6 c773 -23 1324 -74 1635 -152 96 -24 102 -11 48 95 -45 91 -168 253 -245 325 -111 102 -314 227 -452 277 -180 66 -449 125 -623 135 l-100 7 -17 -37z m286 -51 c116 -17 345 -81 448 -125 40 -17 131 -65 203 -108 105 -62 149 -96 230 -177 87 -86 223 -260 212 -271 -2 -2 -35 3 -73 11 -123 26 -474 74 -699 94 -330 30 -539 41 -802 41 l-238 0 75 42 c210 116 491 207 738 239 56 7 92 16 92 23 0 30 -180 177 -265 217 -69 33 -59 35 79 14z"/>
    <path d="M1836 3364 c-19 -18 -20 -28 -6 -55 20 -37 80 -18 80 26 0 42 -44 59 -74 29z"/>
    <path d="M3361 3074 c-137 -19 -259 -51 -514 -133 -329 -107 -515 -139 -743 -128 -193 10 -292 28 -739 132 -270 62 -445 70 -677 30 -208 -36 -370 -87 -570 -178 l-78 -36 0 -137 c0 -105 3 -135 12 -131 7 3 68 31 136 61 260 118 544 186 773 186 145 0 279 -22 566 -94 370 -93 422 -101 693 -101 218 1 244 3 364 28 70 15 230 61 355 102 245 80 347 108 456 124 285 41 512 15 928 -108 350 -103 470 -124 707 -123 240 0 368 24 855 156 275 75 371 89 560 83 259 -9 410 -53 735 -213 l210 -103 0 129 0 128 -117 68 c-350 200 -509 247 -843 247 -208 0 -378 -23 -605 -82 -82 -22 -202 -53 -265 -69 -170 -44 -288 -62 -450 -69 -236 -9 -416 18 -716 107 -384 115 -467 131 -729 136 -140 2 -231 -1 -304 -12z"/>
    <path d="M884 2555 c-9 -25 -15 -47 -13 -49 2 -2 35 -11 72 -20 88 -21 189 -72 247 -124 l45 -40 -40 -7 c-192 -32 -315 -67 -482 -136 -131 -55 -183 -82 -280 -145 l-82 -53 -153 -11 c-84 -7 -156 -14 -160 -16 -5 -3 -8 -18 -8 -34 l0 -30 112 7 113 6 -30 -23 c-54 -42 -116 -104 -160 -161 l-44 -56 28 -27 27 -26 34 47 c46 64 151 165 224 213 l58 40 222 0 c244 0 702 -21 976 -45 216 -19 409 -47 603 -86 82 -16 153 -27 158 -24 16 11 10 36 -29 109 -122 233 -319 415 -597 552 -186 91 -579 184 -782 184 -40 0 -42 -2 -59 -45z m246 -35 c169 -21 417 -94 561 -165 222 -110 404 -260 517 -428 28 -43 52 -80 52 -84 0 -7 -49 -1 -255 32 -367 58 -791 94 -1235 104 l-305 7 135 66 c218 107 410 168 638 203 72 11 112 22 112 30 0 13 -114 125 -172 169 -21 15 -64 39 -95 52 -67 27 -66 27 47 14z"/>
    <path d="M1836 2134 c-19 -18 -20 -28 -6 -55 12 -21 50 -25 68 -7 18 18 14 56 -7 68 -27 14 -37 13 -55 -6z"/>
    <path d="M3455 1854 c-16 -2 -66 -9 -110 -15 -115 -15 -252 -51 -475 -124 -348 -114 -436 -130 -705 -129 -225 0 -308 12 -635 89 -420 99 -577 114 -805 75 -226 -38 -397 -89 -586 -177 l-99 -46 0 -133 c0 -74 3 -134 6 -134 3 0 58 24 122 54 143 66 233 98 360 130 262 66 445 81 632 51 52 -9 214 -44 360 -80 420 -102 588 -123 825 -105 216 17 311 39 605 136 361 121 466 139 738 131 221 -6 304 -22 644 -121 266 -77 379 -101 543 -117 228 -21 487 11 815 101 417 115 543 140 700 140 271 0 460 -53 818 -230 l182 -89 0 128 0 129 -157 88 c-345 193 -492 231 -857 221 -222 -6 -337 -22 -566 -82 -74 -19 -186 -48 -248 -64 -212 -56 -289 -65 -517 -66 -268 0 -356 15 -725 125 -304 91 -406 109 -650 114 -102 3 -198 2 -215 0z"/>
    <path d="M874 1305 c-20 -49 -19 -53 29 -65 78 -20 112 -33 170 -62 54 -27 137 -92 137 -107 0 -4 -46 -14 -103 -24 -225 -38 -494 -144 -699 -275 l-78 -49 -127 -7 c-168 -10 -173 -11 -173 -48 l0 -31 108 7 107 7 -45 -37 c-57 -48 -116 -108 -157 -160 l-32 -41 28 -27 28 -27 28 41 c38 55 172 181 240 226 l56 37 287 -6 c664 -15 1097 -53 1490 -129 200 -38 201 -38 150 65 -84 168 -244 350 -400 452 -103 69 -243 141 -330 171 -192 66 -482 124 -621 124 l-78 0 -15 -35z m319 -50 c95 -17 294 -72 379 -106 82 -32 202 -95 297 -156 109 -70 282 -242 339 -338 23 -38 40 -71 38 -73 -2 -2 -55 6 -117 17 -421 75 -826 111 -1311 118 -202 3 -366 9 -363 12 2 4 59 35 127 68 212 105 481 187 681 208 37 4 67 11 67 15 0 16 -60 88 -113 137 -31 28 -85 65 -118 82 -60 30 -61 31 -28 31 19 0 74 -7 122 -15z"/>
    <path d="M1822 878 c-17 -17 -15 -42 6 -61 33 -30 72 -15 72 28 0 12 -5 26 -12 33 -7 7 -21 12 -33 12 -12 0 -26 -5 -33 -12z"/>
    <path d="M3495 603 c-179 -9 -342 -46 -640 -143 -115 -38 -264 -81 -330 -96 -114 -27 -133 -28 -360 -28 -271 -1 -283 1 -665 89 -385 89 -516 105 -686 85 -232 -27 -449 -86 -659 -179 l-110 -48 -3 -138 c-2 -109 0 -136 10 -132 7 3 64 29 127 57 155 70 297 115 472 150 293 59 410 51 835 -54 389 -96 480 -110 714 -110 277 -1 389 20 765 144 116 38 238 76 272 85 176 44 411 56 604 30 132 -17 233 -41 469 -110 336 -98 482 -124 701 -125 220 0 388 29 778 136 332 91 426 108 596 107 281 0 449 -48 828 -235 87 -43 162 -78 167 -78 6 0 10 51 10 124 l0 124 -112 65 c-172 98 -290 155 -402 192 -270 91 -651 85 -1046 -17 -85 -22 -214 -55 -286 -73 -192 -49 -325 -67 -509 -68 -242 0 -361 21 -739 133 -111 32 -247 68 -304 79 -102 20 -333 43 -402 39 -19 -1 -62 -3 -95 -5z"/>
  </g>
</svg>
